<svg xmlns="http://www.w3.org/2000/svg" viewBox="0 0 800 200">
  <defs>
    <marker id="arrow" markerWidth="10" markerHeight="10" refX="9" refY="3" orient="auto" markerUnits="strokeWidth">
      <path d="M0,0 L0,6 L9,3 z" fill="#1E3A8A" />
    </marker>
  </defs>
  <rect x="0" y="0" width="800" height="200" fill="#F4F1D8" rx="8" />
  <g transform="translate(50, 50)">
    <path d="M10,30 Q30,10 50,30 T90,30 T130,30 T150,50 L150,70 Q130,90 110,70 T70,70 T30,70 T10,50 Z" fill="#fff" stroke="#1E3A8A" stroke-width="2"/>
    <text x="80" y="55" font-family="sans-serif" font-size="14" fill="#111827" text-anchor="middle">Business</text>
    <text x="80" y="75" font-family="sans-serif" font-size="10" fill="#4B5563" text-anchor="middle">"Un client achète..."</text>
  </g>
  <line x1="220" y1="100" x2="270" y2="100" stroke="#1E3A8A" stroke-width="2" marker-end="url(#arrow)" />
  <g transform="translate(290, 50)">
    <rect x="0" y="0" width="100" height="100" fill="#fff" stroke="#6B1D1A" stroke-width="2" rx="4" />
    <text x="50" y="45" font-family="sans-serif" font-size="14" fill="#6B1D1A" text-anchor="middle" font-weight="bold">ENTITÉS</text>
    <rect x="20" y="60" width="60" height="20" fill="#B9D9C1" rx="2" />
    <text x="50" y="74" font-family="sans-serif" font-size="10" fill="#1E3A8A" text-anchor="middle">Client</text>
  </g>
  <line x1="410" y1="100" x2="460" y2="100" stroke="#1E3A8A" stroke-width="2" marker-end="url(#arrow)" />
  <g transform="translate(480, 50)">
    <polygon points="50,10 90,50 50,90 10,50" fill="#fff" stroke="#1E3A8A" stroke-width="2" />
    <text x="50" y="55" font-family="sans-serif" font-size="12" fill="#1E3A8A" text-anchor="middle">RELATIONS</text>
  </g>
  <line x1="590" y1="100" x2="640" y2="100" stroke="#1E3A8A" stroke-width="2" marker-end="url(#arrow)" />
  <g transform="translate(660, 50)">
    <rect x="0" y="0" width="100" height="100" fill="#fff" stroke="#1E3A8A" stroke-width="2" />
    <line x1="0" y1="30" x2="100" y2="30" stroke="#1E3A8A" stroke-width="2" />
    <line x1="50" y1="30" x2="50" y2="100" stroke="#1E3A8A" stroke-width="1" />
    <text x="50" y="20" font-family="sans-serif" font-size="12" fill="#1E3A8A" text-anchor="middle" font-weight="bold">TABLES</text>
    <rect x="10" y="40" width="30" height="10" fill="#ddd" />
    <rect x="60" y="40" width="30" height="10" fill="#ddd" />
  </g>
</svg>